<svg id="favicon_layer_1" data-name="favicon layer 1" xmlns="http://www.w3.org/2000/svg" viewBox="0 0 512 512"><defs><style>.cls-1{fill:#ebe4d4;opacity:0.86;}.cls-2{opacity:0.66;}.cls-3{fill:#601986;}.cls-4{fill:#ac552c;stroke:#a6532c;stroke-linecap:round;stroke-linejoin:round;stroke-width:4px;}</style></defs><rect class="cls-1" width="512" height="512"/><g class="cls-2"><path class="cls-3" d="M425.2,415.83c-.23,4.53,3.62,9.06,8.32,10a10.3,10.3,0,0,0,7.56-1.3,2.84,2.84,0,0,1,3.31,0,9.34,9.34,0,0,0,7.1,1.29,13.18,13.18,0,0,1-1.69-9c.91-4.69,3.36-8.26,8-9.73a10.3,10.3,0,0,1,11.35,3,8.56,8.56,0,0,1,1.79,9.19,7.87,7.87,0,0,1-6.81,5.54,7.4,7.4,0,0,1-5.94-1.92,2.2,2.2,0,0,1-.32-3.08,2.16,2.16,0,0,1,3-.28c2.17,1.38,3.89,1.3,5.22-.24a4.86,4.86,0,0,0,0-6.31,6.67,6.67,0,0,0-9.59-.25A8.65,8.65,0,0,0,458,426.2a15,15,0,0,0,14.62,1,3.64,3.64,0,0,1,3.49.12,10.79,10.79,0,0,0,14.85-5.09c.14-.3.25-.62.39-.92.62-1.42,1.74-2,3-1.46a2.23,2.23,0,0,1,1.06,3,15.16,15.16,0,0,1-19.81,9,3.61,3.61,0,0,0-2.72-.07A19.44,19.44,0,0,1,455.91,430a2.14,2.14,0,0,0-2-.28,15.25,15.25,0,0,1-9-.08c1.85,1.83,3.55,3.42,4,5.58.51,2.53,1.8,2.89,4.14,2.93a23.28,23.28,0,0,1,21.63,16.25,2.56,2.56,0,0,0,1.63,1.78,21.89,21.89,0,0,0,19.3-1.07,13.75,13.75,0,0,1,1.26-.67,2,2,0,0,1,2.88,2A21,21,0,0,1,496,467.73c-.75,1.06-1.64,1.64-2.91,1.1-.65-.27-1,.07-1.37.43a18.12,18.12,0,0,1-10.16,4.79,1.19,1.19,0,0,0-1.07.94,2.18,2.18,0,0,1-2.36,1.46,17.41,17.41,0,0,1-5.17-1,1.38,1.38,0,0,0-1.89.58,23.14,23.14,0,0,1-14.47,9,1.78,1.78,0,0,0-1.37,1.07,20.59,20.59,0,0,1-35.3,2.48,1.3,1.3,0,0,0-1.68-.58,32.72,32.72,0,0,1-6.06,1c-1.73.16-2.92-.76-3-2.3a2.4,2.4,0,0,1,2.53-2.22,32.37,32.37,0,0,0,7.69-1.4c1.58-.46,2.42,0,3.3,1.51a16.62,16.62,0,0,0,7.25,6.88,2,2,0,0,0,2.56-.35,25.88,25.88,0,0,0,4.17-4.87,8.52,8.52,0,0,1,5.53-3.75c1.7-.42,1.68-.5.48-1.8-5.59-6.08-4.5-15.67,2.26-19.94A11.17,11.17,0,0,1,458.21,462a2.47,2.47,0,0,1,.39,3.45,2.24,2.24,0,0,1-3.41.07c-4.52-4-10.25-.91-11.24,4.4a8.44,8.44,0,0,0,3.52,8.79,1.39,1.39,0,0,0,2,0,19,19,0,0,1,13-4.32,28.27,28.27,0,0,0,3.42-.26,2.46,2.46,0,0,0,2-1.21c.28-.45.57-.88.86-1.32,1-1.58,1.92-1.9,3.6-1.11a1.8,1.8,0,0,0,2.21-.15,19.66,19.66,0,0,0,5.49-7.22c.37-.85.12-1.25-.72-1.4a22.86,22.86,0,0,1-5.42-1.74,4.58,4.58,0,0,0-2.67,0c-7.16.95-12.73-1.88-16.17-8.2a21.45,21.45,0,0,0-14.84-11.13c-1.33-.29-1.52.15-1.51,1.33,0,6.69-2.45,12.2-8,16.07-7.66,5.36-18.82,2.54-22.68-5.59a13.14,13.14,0,0,1,4-16.12,12.07,12.07,0,0,1,6-2.12,14,14,0,0,0-4.58-5.26,45.67,45.67,0,0,0-4.92-2.9c-2.82-1.56-5.53-.85-8.27.12-.54.19-1.06.42-1.61.57-1.36.39-2.48-.08-2.84-1.16a2.22,2.22,0,0,1,1.34-3,32,32,0,0,1,8-2.15,35.16,35.16,0,0,1,17.17,1.93,22.12,22.12,0,0,1-1.57-5.74c-.21-2.2.55-3.94,2.27-4.84s3.32-.66,5.11.86a7.18,7.18,0,0,0,2.45,1.42c2.77.88,4.24.11,5.13-2.65,1.95-6,6.7-9.72,13.23-10.28a2.68,2.68,0,0,0,2.06-1,19.88,19.88,0,0,1,31.43,1.27,3.45,3.45,0,0,0,2.34,1.61,9.83,9.83,0,0,1,2.56.88,2,2,0,0,1,1.07,2.65,1.86,1.86,0,0,1-2.5,1.29,33.69,33.69,0,0,0-4.43-1.09c-1-.16-1.35-1-1.8-1.7a15.63,15.63,0,0,0-24-3.68,13.89,13.89,0,0,0-2.42,2.82,2.62,2.62,0,0,1-2.66,1.27c-4.9-.41-9.51,2.35-10.67,7-1.26,5.12-6.64,8.3-13,4.6C426.4,416.7,425.87,416.29,425.2,415.83Zm-4.92,26.74c0-.62,0-1.24,0-1.86,0-1.2-.57-1.76-1.88-1.73a6.31,6.31,0,0,0-4.85,2.33,8.53,8.53,0,0,0,.88,11.95c.88.8,1.44.82,2.18-.12A16.3,16.3,0,0,0,420.28,442.57Z" transform="translate(0 0)"/><path class="cls-3" d="M382.16,471.17a10.18,10.18,0,0,1-7.69-3,2.21,2.21,0,0,1-.22-3.31,2.32,2.32,0,0,1,3.23-.18c3.78,2.68,6.87,2.57,9.5-.35a8.49,8.49,0,0,0,.1-11c-3.28-3.73-7.45-4.52-12.1-3.45a19,19,0,0,0-13.07,10c-1.07,2-2.53,2.39-3.83,1.05a2.15,2.15,0,0,1-.29-2.75,23.05,23.05,0,0,1,17.07-12.78,3,3,0,0,0,2.82-2.32,29.07,29.07,0,0,1,4.79-9,2.3,2.3,0,0,1,4.11.8,2.85,2.85,0,0,1-.78,2.22,32.55,32.55,0,0,0-3.66,6.61c-.43,1-.27,1.42.86,1.77,5.91,1.83,9.83,5.6,10.67,11.93C394.56,464,389.35,471.47,382.16,471.17Z" transform="translate(0 0)"/><path class="cls-3" d="M378.64,492.47c-9.75-.56-17.12-5.24-21.4-14.54-.78-1.68-.37-2.86,1.11-3.55,1.12-.53,2.24.1,2.95,1.71,3,6.75,8.18,10.71,15.42,11.64a18.51,18.51,0,0,0,15.71-5.27,2.73,2.73,0,0,1,2.5-1.07,2.26,2.26,0,0,1,1.81,1.63,2.29,2.29,0,0,1-.9,2.38,23.29,23.29,0,0,1-12,6.52A33.48,33.48,0,0,1,378.64,492.47Z" transform="translate(0 0)"/></g><path class="cls-4" d="M251.93,169.62c3.25,5.5,9.21,8.18,18.14,8.17,92.72-.14,155.36-.83,157.2-1.73,1.27-.62,3.69-3.34,5.36-6,3-4.76,3.06-6.08,3.46-43.24.41-38.17.4-38.34-2.7-42.95-5.47-8.12-6.14-8.18-93.32-7.86-59.07.21-79.15.69-82.17,2C253,80,249,86.31,248,93.69c-.44,3.06-.27,20.46.36,38.65C249.3,160.73,249.81,166,251.93,169.62Zm168.47-8.83c-1.65,1.66-99.7,2.57-136.69,1.27l-20.46-.71V149.53c0-10.16.36-12.07,2.59-13.64s16.3-1.81,75.78-1.75l73.19.06,3,3c2.41,2.42,3.12,4.91,3.55,12.54C421.7,155.71,421.34,159.85,420.4,160.79ZM263.25,103.92V91.85l78.16.34,78.17.35.38,11.55c.27,8.19-.12,12-1.34,13s-27,1.76-75.15,2.41C255.74,120.66,263.25,122.11,263.25,103.92Z" transform="translate(0 0)"/><path class="cls-4" d="M151.82,177.47c16.59-1,22.74-3.57,25.11-10.46,1.9-5.5.92-85.15-1.09-88.92s-8.7-3-11.53,1.3c-2.14,3.28-2.38,7.55-2.38,42,0,21.09-.49,39.1-1.08,40s-4.31,1.68-9.82,1.68c-8.42,0-13.43-1.46-15.65-4.57-.59-.82-.67-13.27-.2-27.69.88-26.65-.41-43.8-3.81-50.91-2.55-5.34-7.73-4.77-10.7,1.19-2,4.08-2.36,9.21-2.48,39-.08,18.85-.56,35.78-1.07,37.63-.91,3.27-1.28,3.36-13,3.36h-12l-.67-40.32c-.37-22.17-1.11-41-1.65-41.83-1.36-2.09-5.08-2.86-9.08-1.88l-3.36.82-1.11,42.64c-1,39.85-.94,43,1.35,47.61,4,8.06,9.53,10.39,24.33,10.18,16.44-.23,17.7.84,17.7,15,0,12.81-1,13.53-17.62,12.27-13.63-1-19.24.59-23.32,6.74-2.47,3.73-2.58,8-2.88,110.73-.35,117.18-.63,112.89,7.41,112.89,8.27,0,7.88,5.38,8-109.16,0-57.45.45-105.08.92-105.84s5.65-1.38,11.51-1.38c17.16,0,15.47-11.95,15.3,108.24-.08,56.89.33,104.42.92,105.62,1.75,3.61,7.85,4,11.13.69l2.87-2.88.33-102.81c.19-56.54.64-103.83,1-105.07.94-3.09,6.2-3.92,17.34-2.76l9.39,1,.23,48.38c.46,99.91.33,150.52-.42,153.5-1.22,4.88.64,9.77,4.25,11.15,4.08,1.55,9.3-.22,10.62-3.61.53-1.35.89-50.44.8-109.1-.17-115.82.16-110.73-7.51-114.23-1.87-.85-9.6-1.55-17.17-1.55-17.75,0-18.7-.64-19.41-13.15C132.57,179.66,133.88,178.57,151.82,177.47Z" transform="translate(0 0)"/><path class="cls-4" d="M431.32,421.58c-4.46-1.87-16.7-2.06-107.24-1.62-56.22.28-102.6.11-103.08-.37-1.75-1.75-1-21.55.85-23.4,1.46-1.43,21.5-1.91,102.83-2.47,99.34-.67,101.08-.73,104.91-3.46a17.65,17.65,0,0,0,5.47-7.57c2.18-6.64,1.05-120.94-1.25-125.24-.86-1.63-4.12-4.32-7.23-6-5.43-2.91-7-3-38.82-3-39.42,0-38,.54-38-14.1,0-5.82.65-9.94,1.74-11,1.32-1.33,11.37-1.92,41.37-2.42,37.26-.64,39.75-.83,41.54-3.28,2.52-3.46,2.4-5.22-.62-9l-2.53-3.12-93.76-.22c-51.56-.12-99-.3-105.49-.39l-11.75-.16V142.43c0-48.27-.37-62.62-1.67-63.63-2.92-2.26-5.8-2.82-8-1.56-5.27,3-6.95,17.64-5.06,44.2a246.5,246.5,0,0,1,0,40.31c-1.7,22-.29,44,3.27,50.89,4.74,9.16,5.31,9.23,76.86,8.29,53-.69,50-1.53,50,14.18,0,6.93-.59,10.37-2,11.81-3,3-12.5,4-29.31,3-8.23-.46-33-.94-55.08-1.08l-40.12-.24-2.49,3.07c-3.22,4-3.13,4.93.82,8.88l3.29,3.3H331.62l2.09,3.2c1.68,2.56,1.91,5.36,1.16,14.28L334,292.46l-58.71-1c-61.83-1-66.83-.7-69.75,4.78-1.61,3,.13,7.19,3.82,9.17,1.36.72,28.48,1.43,63.41,1.64,60.63.37,61.08.35,67.17-2.6,3.44-1.67,6.82-4.47,7.69-6.38s1.55-8.78,1.55-15.35.62-13.58,1.38-15.59l1.38-3.64,11.59.82c6.37.45,12.11,1.35,12.75,2,1.51,1.51,2.11,65.5.63,67-.61.63-36.75,1.26-80.3,1.41-78.22.27-85.5.65-90.68,4.77-2.33,1.85-2.1,7.05.4,9.12,3.09,2.57,171,1.9,177.24-.71,8.33-3.48,8.63-4.84,9.64-44.56l.92-36,3.36-1.73c2.06-1.06,7.18-1.59,13.32-1.38l10,.34.34,54.25c.2,31.69-.19,55.63-.93,57.58l-1.27,3.34-100-.81c-109.41-.9-107.11-1-111.08,6.83-2.32,4.6-4.07,35.4-2.28,40.11.67,1.77,3.82,4.61,7,6.3l5.76,3.07,83.2.25c45.76.13,92.56.36,104,.5,25,.32,30.86-1.21,30.86-8.13C436.35,424.31,435.6,423.37,431.32,421.58Z" transform="translate(0 0)"/></svg>