<svg id="favicon_layer_1" data-name="favicon_layer_1" xmlns="http://www.w3.org/2000/svg" viewBox="0 0 512 128"><defs><style>.cls-1{fill:#ebe4d4;opacity:0;}.cls-2{opacity:0.66;}.cls-3{fill:#601986;}.cls-4,.cls-5{fill:#ac552c;stroke:#a6532c;}.cls-4,.cls-6{stroke-linecap:round;stroke-linejoin:round;}.cls-4{stroke-width:2px;}.cls-5{font-size:68px;stroke-miterlimit:10;stroke-width:0.25px;font-family:ImprintMT-Shadow, Imprint MT Shadow;}.cls-6{fill:#913030;stroke:#913030;stroke-width:3px;}</style></defs><rect class="cls-1" width="512" height="128"/><g class="cls-2"><path class="cls-3" d="M90.22,80.49a2.7,2.7,0,0,0,2.17,2.6,2.67,2.67,0,0,0,2-.34.74.74,0,0,1,.86,0,2.4,2.4,0,0,0,1.84.33,3.43,3.43,0,0,1-.43-2.35,3,3,0,0,1,2.09-2.53,2.67,2.67,0,0,1,3,.79,2.22,2.22,0,0,1,.47,2.39,2,2,0,0,1-1.78,1.44,1.91,1.91,0,0,1-1.54-.5.57.57,0,0,1-.09-.8.57.57,0,0,1,.78-.07c.56.36,1,.33,1.36-.07a1.26,1.26,0,0,0,0-1.64,1.74,1.74,0,0,0-2.5-.06,2.25,2.25,0,0,0,.39,3.5,3.92,3.92,0,0,0,3.81.27.9.9,0,0,1,.9,0,2.82,2.82,0,0,0,3.87-1.33,2.44,2.44,0,0,0,.1-.24.57.57,0,0,1,.77-.38.59.59,0,0,1,.28.79,4,4,0,0,1-5.16,2.34,1,1,0,0,0-.71,0,5,5,0,0,1-4.39-.46.57.57,0,0,0-.52-.07,4,4,0,0,1-2.33,0,3,3,0,0,1,1,1.45c.14.66.47.75,1.08.76a6.07,6.07,0,0,1,5.63,4.23.66.66,0,0,0,.43.46,5.69,5.69,0,0,0,5-.27,3.47,3.47,0,0,1,.33-.18.53.53,0,0,1,.75.53,5.44,5.44,0,0,1-1,2.92c-.19.28-.42.43-.75.29-.17-.07-.26,0-.36.11a4.69,4.69,0,0,1-2.65,1.25c-.17,0-.22.11-.27.24a.57.57,0,0,1-.62.38,4.47,4.47,0,0,1-1.35-.25.36.36,0,0,0-.49.15,6.06,6.06,0,0,1-3.76,2.34.44.44,0,0,0-.36.28,5.36,5.36,0,0,1-9.19.64.34.34,0,0,0-.44-.15,9.14,9.14,0,0,1-1.58.26.65.65,0,0,1-.78-.6.62.62,0,0,1,.66-.58,8.4,8.4,0,0,0,2-.36c.41-.12.63,0,.86.39a4.36,4.36,0,0,0,1.89,1.79.5.5,0,0,0,.66-.09,6.6,6.6,0,0,0,1.09-1.27,2.2,2.2,0,0,1,1.44-1c.44-.1.44-.13.13-.46a3.4,3.4,0,0,1,.58-5.19,2.89,2.89,0,0,1,3.45.33.64.64,0,0,1,.11.9.58.58,0,0,1-.89,0,1.77,1.77,0,0,0-2.93,1.15A2.21,2.21,0,0,0,96,96.87a.37.37,0,0,0,.52,0,5,5,0,0,1,3.39-1.13c.29,0,.59,0,.89-.06a.67.67,0,0,0,.52-.32c.07-.12.15-.23.22-.34.27-.42.5-.5.94-.29a.48.48,0,0,0,.58,0,5.15,5.15,0,0,0,1.42-1.88c.1-.22,0-.33-.18-.36a6.13,6.13,0,0,1-1.41-.46,1.28,1.28,0,0,0-.7,0A3.9,3.9,0,0,1,98,89.85,5.61,5.61,0,0,0,94.14,87c-.35-.07-.4,0-.4.35a4.74,4.74,0,0,1-2.07,4.18A4.07,4.07,0,0,1,85.76,90a3.43,3.43,0,0,1,1-4.2,3.18,3.18,0,0,1,1.56-.55,3.61,3.61,0,0,0-1.19-1.37,12.68,12.68,0,0,0-1.28-.76,2.51,2.51,0,0,0-2.16,0c-.14,0-.27.11-.42.15a.54.54,0,0,1-.73-.3.58.58,0,0,1,.34-.79A8.43,8.43,0,0,1,85,81.68a9.19,9.19,0,0,1,4.47.5,5.74,5.74,0,0,1-.41-1.49,1.17,1.17,0,0,1,.59-1.26,1.09,1.09,0,0,1,1.33.22,1.65,1.65,0,0,0,.64.37c.72.23,1.1,0,1.34-.69a3.77,3.77,0,0,1,3.44-2.68.69.69,0,0,0,.54-.25,5.17,5.17,0,0,1,8.18.33.87.87,0,0,0,.61.41,2.59,2.59,0,0,1,.66.23.52.52,0,0,1,.28.69.48.48,0,0,1-.65.34,7.71,7.71,0,0,0-1.15-.28c-.25-.05-.35-.26-.47-.45a4.07,4.07,0,0,0-6.24-1,3.68,3.68,0,0,0-.63.73.67.67,0,0,1-.69.33,2.55,2.55,0,0,0-2.78,1.83,2.13,2.13,0,0,1-3.38,1.2C90.53,80.72,90.4,80.61,90.22,80.49Zm-1.28,7c0-.16,0-.32,0-.48,0-.31-.15-.46-.49-.45a1.62,1.62,0,0,0-1.26.61,2.22,2.22,0,0,0,.23,3.11c.23.21.37.21.56,0A4.2,4.2,0,0,0,88.94,87.45Z" transform="translate(0 0)"/><path class="cls-3" d="M79,94.9a2.69,2.69,0,0,1-2-.79.57.57,0,0,1-.05-.86.6.6,0,0,1,.84,0c1,.7,1.79.67,2.47-.09a2.21,2.21,0,0,0,0-2.87,3,3,0,0,0-3.15-.9A5,5,0,0,0,73.74,92c-.27.52-.65.62-1,.27a.57.57,0,0,1-.08-.72,6,6,0,0,1,4.45-3.32.79.79,0,0,0,.73-.61,7.61,7.61,0,0,1,1.25-2.35.55.55,0,0,1,.62-.24.55.55,0,0,1,.45.45A.72.72,0,0,1,80,86,8.82,8.82,0,0,0,79,87.73c-.11.26-.07.36.23.46A3.59,3.59,0,0,1,82,91.29,3.15,3.15,0,0,1,79,94.9Z" transform="translate(0 0)"/><path class="cls-3" d="M78.1,100.44a6.12,6.12,0,0,1-5.57-3.78c-.2-.44-.1-.75.29-.93s.58,0,.77.45a5,5,0,0,0,8.1,1.66.69.69,0,0,1,.65-.28.6.6,0,0,1,.47.42.63.63,0,0,1-.23.63,6.07,6.07,0,0,1-3.12,1.69A7.8,7.8,0,0,1,78.1,100.44Z" transform="translate(0 0)"/></g><path class="cls-4" d="M43.94,48.64a3.3,3.3,0,0,0,3.16,1.42c16.15,0,27.07-.14,27.39-.3a3.46,3.46,0,0,0,.93-1c.52-.83.54-1.06.61-7.53.07-6.66.07-6.69-.47-7.49-1-1.41-1.07-1.42-16.27-1.37-10.29,0-13.79.12-14.31.34a3.51,3.51,0,0,0-1.74,2.75c-.07.53,0,3.56.07,6.74C43.48,47.09,43.57,48,43.94,48.64ZM73.29,47.1c-.28.29-17.37.45-23.82.22l-3.56-.12V45.14c0-1.77.06-2.1.45-2.38s2.84-.31,13.21-.3H72.32l.52.53c.42.42.55.85.62,2.18A3.66,3.66,0,0,1,73.29,47.1ZM45.91,37.19v-2.1l13.62.06,13.62.06.07,2c0,1.43,0,2.09-.24,2.26s-4.7.31-13.09.42C44.6,40.11,45.91,40.36,45.91,37.19Z" transform="translate(0 0)"/><path class="cls-4" d="M26.49,50c2.89-.18,4-.62,4.38-1.82.33-1,.16-14.84-.19-15.5s-1.52-.53-2,.23c-.38.57-.42,1.31-.42,7.32a67.66,67.66,0,0,1-.19,7c-.12.19-.75.29-1.71.29-1.47,0-2.34-.25-2.73-.79a34.53,34.53,0,0,1,0-4.83c.15-4.64-.07-7.63-.66-8.87-.45-.93-1.35-.83-1.87.21-.35.71-.41,1.6-.43,6.79,0,3.28-.1,6.24-.19,6.56-.16.57-.22.58-2.25.58h-2.1l-.11-7c-.07-3.87-.2-7.15-.29-7.29a1.5,1.5,0,0,0-1.59-.33l-.58.14-.19,7.43c-.18,7-.17,7.49.23,8.3.69,1.4,1.66,1.81,4.24,1.77,2.87,0,3.09.15,3.09,2.62,0,2.23-.18,2.35-3.07,2.13-2.38-.18-3.36.11-4.07,1.18-.43.65-.45,1.39-.5,19.29-.06,20.42-.11,19.68,1.29,19.68s1.37.94,1.39-19c0-10,.08-18.31.16-18.44a5,5,0,0,1,2-.24c3,0,2.7-2.08,2.67,18.86,0,9.92.06,18.2.16,18.41a1.26,1.26,0,0,0,1.94.12l.5-.5.06-17.92c0-9.85.11-18.09.17-18.31.17-.54,1.08-.68,3-.48l1.63.17,0,8.43c.08,17.41.06,26.23-.07,26.75A1.61,1.61,0,0,0,29,94.81a1.48,1.48,0,0,0,1.85-.62c.09-.24.15-8.79.14-19,0-20.18,0-19.29-1.31-19.9a11.91,11.91,0,0,0-3-.27c-3.09,0-3.26-.11-3.38-2.29S23.36,50.2,26.49,50Z" transform="translate(0 0)"/><path class="cls-4" d="M75.2,92.55c-.78-.33-2.91-.36-18.69-.28-9.8,0-17.88,0-18-.07a9.1,9.1,0,0,1,.15-4.08c.26-.25,3.75-.33,17.92-.43,17.31-.11,17.62-.12,18.28-.6a3,3,0,0,0,1-1.32c.38-1.16.18-21.07-.22-21.82a3.57,3.57,0,0,0-1.26-1.05c-1-.5-1.22-.52-6.76-.52-6.87,0-6.62.09-6.62-2.46a3.71,3.71,0,0,1,.3-1.92c.23-.23,2-.34,7.21-.43,6.5-.11,6.93-.14,7.24-.57.44-.6.42-.91-.11-1.56l-.44-.54-16.34,0c-9,0-17.25,0-18.38-.07l-2,0V43.9c0-8.41-.06-10.91-.29-11.08a1.26,1.26,0,0,0-1.4-.28c-.92.52-1.21,3.08-.88,7.7a43.41,43.41,0,0,1,0,7c-.3,3.83-.05,7.67.57,8.87.82,1.59.92,1.61,13.39,1.44,9.24-.12,8.72-.26,8.72,2.47,0,1.21-.1,1.81-.35,2.06-.52.52-2.18.7-5.11.53-1.43-.08-5.75-.16-9.6-.19l-7,0-.43.54c-.56.69-.55.86.14,1.54l.58.58h21l.37.56c.29.44.33.93.2,2.48l-.16,1.94L48,69.88c-10.78-.19-11.65-.13-12.16.83a1.25,1.25,0,0,0,.67,1.6c.24.12,5,.24,11.05.28,10.56.07,10.64.06,11.7-.45A3.18,3.18,0,0,0,60.6,71a10,10,0,0,0,.27-2.68,11.8,11.8,0,0,1,.24-2.71l.25-.64,2,.14a8.35,8.35,0,0,1,2.23.35,89.26,89.26,0,0,1,.11,11.68c-.11.11-6.41.22-14,.24-13.63,0-14.9.12-15.8.83A1.15,1.15,0,0,0,36,79.83c.54.45,29.8.33,30.89-.12,1.45-.61,1.5-.85,1.68-7.77l.16-6.27.58-.3a5.78,5.78,0,0,1,2.32-.24l1.74.06.06,9.45c0,5.52,0,9.69-.16,10l-.22.59-17.42-.15C36.54,85,36.94,84.93,36.25,86.3a23.17,23.17,0,0,0-.4,7,3,3,0,0,0,1.22,1.1l1,.54,14.5,0c8,0,16.13.06,18.12.09,4.37,0,5.38-.21,5.38-1.42C76.07,93,75.94,92.86,75.2,92.55Z" transform="translate(0 0)"/><text class="cls-5" transform="translate(128.09 89.25)">Yangs Cloud</text><line class="cls-6" x1="119.43" y1="32.57" x2="119.43" y2="95.43"/></svg>