<?xml version="1.0" standalone="no"?>
<!DOCTYPE svg PUBLIC "-//W3C//DTD SVG 20010904//EN"
 "http://www.w3.org/TR/2001/REC-SVG-20010904/DTD/svg10.dtd">
<svg version="1.0" xmlns="http://www.w3.org/2000/svg"
 width="700.000000pt" height="700.000000pt" viewBox="0 0 700.000000 700.000000"
 preserveAspectRatio="xMidYMid meet">
<metadata>
Created by potrace 1.14, written by Peter Selinger 2001-2017
</metadata>
<g transform="translate(0.000000,700.000000) scale(0.100000,-0.100000)"
fill="#000000" stroke="none">
<path d="M1688 5974 c-31 -16 -74 -84 -83 -129 -8 -45 -14 -220 -20 -610 -4
-323 -7 -391 -18 -402 -8 -7 -256 -10 -268 -2 -9 5 -13 52 -15 156 -13 823
-19 930 -46 960 -24 26 -74 36 -133 27 -77 -11 -74 -2 -81 -259 -3 -126 -7
-282 -9 -345 -2 -63 -5 -223 -6 -356 -2 -284 4 -317 80 -394 63 -66 116 -80
310 -85 82 -2 159 -8 170 -14 11 -6 24 -27 30 -46 10 -38 8 -210 -3 -237 -11
-25 -43 -29 -198 -22 -184 8 -240 -2 -302 -57 -69 -61 -75 -94 -81 -424 -6
-348 -6 -2435 0 -2510 15 -177 37 -215 125 -215 94 0 112 36 125 251 4 52 8
639 11 1304 5 1389 5 1388 17 1396 5 4 48 7 95 9 48 1 102 3 119 4 38 3 58
-15 67 -59 4 -16 9 -41 13 -55 3 -14 8 -430 9 -925 2 -495 5 -1117 7 -1383 4
-455 5 -484 23 -503 27 -30 54 -42 91 -41 41 2 69 15 110 55 l32 30 1 681 c1
616 4 1074 10 1877 1 152 5 281 8 286 8 13 68 30 97 27 154 -11 201 -17 206
-26 12 -19 15 -2579 3 -2724 -5 -70 -3 -86 14 -120 33 -63 86 -83 161 -62 62
19 83 50 87 135 5 90 5 2517 0 2653 -9 251 -27 325 -88 354 -52 25 -70 27
-248 33 -91 2 -178 8 -195 12 -46 11 -62 53 -64 169 -3 135 7 142 209 157 281
21 370 67 390 202 9 56 5 911 -4 1065 -7 114 -20 153 -56 168 -64 26 -141 -5
-175 -70 -21 -40 -25 -129 -31 -605 -3 -247 -6 -460 -7 -472 -1 -14 -10 -24
-26 -28 -35 -9 -181 -4 -216 8 -63 20 -60 -2 -61 460 0 232 -4 437 -7 455 -3
18 -11 58 -17 89 -24 134 -88 196 -162 157z"/>
<path d="M3948 5985 c-2 -2 -86 -5 -188 -8 -102 -4 -197 -8 -212 -10 -44 -7
-105 -53 -133 -100 -55 -96 -58 -122 -51 -472 10 -449 18 -601 33 -665 18 -74
79 -140 156 -167 49 -17 98 -18 747 -17 1075 2 1523 10 1557 27 31 16 86 87
104 133 20 54 24 158 24 629 0 431 -1 473 -18 502 -42 77 -97 118 -172 129
-11 2 -36 6 -55 10 -30 7 -1785 15 -1792 9z m1235 -275 l527 -1 1 -37 c3 -105
2 -242 -2 -246 -2 -3 -49 -7 -104 -11 -242 -15 -1559 -33 -1785 -25 -104 3
-178 23 -188 51 -6 16 -7 108 -3 250 l1 25 513 -2 c281 -1 749 -3 1040 -4z
m506 -605 c33 -38 41 -68 43 -165 2 -96 0 -107 -19 -114 -72 -28 -2065 -25
-2082 3 -3 5 -5 40 -4 78 0 37 2 95 2 128 1 33 5 66 10 74 15 23 139 26 1103
28 l917 2 30 -34z"/>
<path d="M2851 5955 c-33 -28 -57 -89 -68 -175 -9 -72 -9 -299 1 -480 10 -176
10 -316 0 -475 -10 -160 -11 -421 -1 -520 17 -179 58 -280 125 -314 36 -18 52
-22 142 -36 33 -5 577 -6 1125 -1 138 1 273 -2 300 -7 82 -14 86 -22 84 -161
-1 -111 -3 -121 -25 -143 -13 -12 -31 -23 -41 -24 -10 0 -27 -3 -38 -5 -22 -6
-277 -5 -425 1 -227 8 -1176 15 -1186 8 -6 -5 -25 -28 -42 -52 -47 -65 -43
-93 21 -156 l52 -51 819 1 c664 0 821 -2 832 -13 23 -22 32 -78 27 -164 -2
-46 -6 -92 -8 -103 -2 -11 -4 -28 -4 -38 -1 -17 -21 -17 -383 -10 -211 4 -574
7 -808 7 -398 0 -428 -1 -479 -19 -32 -12 -63 -31 -75 -48 -52 -71 11 -184
104 -185 8 -1 130 -4 270 -8 140 -4 507 -8 815 -8 623 -1 621 -1 721 67 80 54
85 74 99 356 2 58 9 119 15 137 11 33 12 33 63 29 192 -16 236 -22 238 -33 7
-52 9 -130 12 -427 2 -192 2 -371 -1 -396 l-4 -45 -61 -1 c-34 0 -343 -3 -687
-7 -951 -9 -1329 -15 -1395 -22 -127 -12 -213 -54 -216 -107 -3 -65 9 -100 42
-117 11 -6 106 -14 212 -17 403 -13 1873 -4 2132 13 161 10 215 63 230 224 8
92 14 235 21 516 10 411 7 375 34 393 19 13 52 16 154 16 l131 0 0 -747 c0
-587 -3 -750 -13 -760 -9 -9 -88 -11 -350 -9 -642 7 -2317 6 -2378 -1 -168
-19 -199 -93 -209 -490 -4 -185 11 -218 131 -286 l71 -41 1107 -3 c1053 -3
1107 -4 1102 -21 -2 -9 2 -24 11 -32 8 -8 11 -15 6 -15 -5 0 -14 5 -21 12 -9
9 -12 8 -12 -7 0 -11 -10 -31 -21 -45 -11 -14 -18 -19 -14 -12 4 7 0 12 -9 12
-9 0 -16 -4 -16 -9 0 -5 -9 -7 -20 -4 -12 3 -20 0 -20 -6 0 -7 4 -9 10 -6 6 4
7 -1 3 -11 -5 -15 -7 -15 -15 0 -8 14 -12 14 -36 2 -34 -17 -114 -87 -108 -93
3 -3 -4 -15 -15 -26 -20 -22 -22 -58 -4 -64 6 -2 20 4 30 13 11 8 14 13 8 9
-7 -3 -13 -1 -13 4 0 6 4 11 10 11 5 0 25 17 44 38 24 25 34 44 31 59 -2 13 1
23 7 23 5 0 8 -7 5 -15 -4 -8 -2 -17 3 -20 6 -4 10 -1 10 4 0 6 9 11 20 11 11
0 20 5 20 11 0 5 5 7 12 3 8 -5 9 -2 5 10 -4 10 -3 15 3 11 6 -3 10 -1 10 4 0
6 4 11 10 11 5 0 9 -5 7 -12 -3 -15 23 -18 41 -5 6 5 12 6 12 1 0 -5 16 -10
35 -11 25 -2 44 -13 69 -39 19 -20 39 -33 44 -30 6 3 14 1 18 -5 4 -8 3 -9 -4
-5 -7 4 -12 2 -12 -4 0 -6 -4 -8 -10 -5 -5 3 -10 2 -10 -3 0 -14 28 -23 34
-11 2 5 3 4 2 -3 -2 -7 -9 -12 -15 -11 -6 2 -11 -2 -11 -7 0 -6 5 -10 10 -10
6 0 2 -10 -10 -22 -18 -20 -24 -33 -17 -41 5 -6 -29 -35 -36 -30 -4 3 -14 -1
-22 -7 -12 -10 -18 -10 -29 -1 -11 9 -19 9 -34 0 -21 -13 -57 -5 -47 10 3 5 1
12 -5 16 -6 3 -13 -1 -16 -10 -6 -15 38 -64 61 -66 6 -1 22 -3 38 -5 16 -1 27
2 27 9 0 7 4 6 10 -3 8 -12 12 -13 19 -2 4 8 11 13 15 12 12 -3 55 33 73 59
14 22 14 24 -1 18 -10 -4 -20 1 -26 13 -7 14 -7 20 0 20 5 0 10 -6 10 -14 0
-9 7 -12 21 -9 16 4 19 11 15 29 -4 13 -2 24 2 24 5 0 7 11 4 25 -2 14 -8 23
-12 20 -5 -3 -6 4 -3 15 3 12 -1 22 -10 26 -9 3 -14 11 -11 18 2 6 -7 23 -21
36 -22 20 -25 21 -19 6 5 -14 4 -17 -4 -12 -7 4 -12 13 -12 21 0 7 -10 17 -22
21 -13 3 -31 13 -40 21 -16 15 -16 17 2 41 24 30 26 44 5 36 -8 -4 -15 -2 -15
2 0 14 64 17 268 15 l124 -1 -22 -35 c-12 -19 -18 -40 -14 -46 3 -6 1 -15 -6
-19 -11 -7 -10 -12 3 -25 10 -9 14 -22 10 -28 -14 -23 -11 -39 9 -45 15 -4 17
-7 6 -13 -10 -7 -10 -9 0 -9 6 0 12 -7 12 -15 0 -23 81 -64 135 -69 68 -5 128
18 180 71 25 25 44 48 43 51 -1 4 4 18 11 31 8 14 9 21 2 17 -6 -4 -11 -2 -11
3 0 6 5 11 11 11 6 0 9 9 6 20 -3 11 -2 20 2 20 4 0 8 11 9 25 1 14 -4 25 -11
25 -8 0 -7 4 3 10 10 6 17 5 23 -5 4 -8 16 -15 25 -15 37 0 177 -94 172 -115
-1 -4 7 -18 19 -31 11 -13 18 -24 15 -24 -4 0 -1 -7 6 -15 7 -8 17 -12 23 -8
5 3 7 1 4 -4 -4 -6 2 -18 13 -28 11 -10 20 -15 20 -10 0 4 12 -1 27 -10 25
-17 26 -17 20 1 -6 16 -5 17 5 4 7 -8 26 -16 41 -17 24 -2 27 0 17 12 -10 12
-9 16 4 21 8 3 21 4 28 1 7 -3 2 -6 -11 -6 -20 -1 -22 -3 -11 -16 11 -13 15
-13 22 -3 6 11 10 11 16 0 5 -7 20 -14 33 -15 13 0 27 -5 30 -10 4 -5 19 -9
34 -9 22 0 25 -2 12 -10 -10 -5 -14 -15 -10 -25 5 -12 3 -14 -8 -8 -8 4 -11 5
-7 1 3 -4 -2 -16 -13 -27 -11 -11 -17 -25 -13 -31 4 -6 3 -8 -4 -4 -6 3 -23
-6 -38 -21 -23 -23 -80 -41 -68 -21 11 17 -8 7 -30 -17 -18 -19 -25 -22 -36
-12 -10 10 -12 8 -6 -8 6 -16 5 -18 -5 -8 -28 27 -129 8 -163 -31 -10 -11 -21
-19 -24 -16 -4 3 -8 -3 -10 -14 -2 -11 0 -16 6 -12 6 3 13 3 16 -2 3 -5 -2 -9
-11 -9 -9 0 -18 9 -21 19 -6 24 -18 23 -25 -3 -3 -12 -10 -18 -16 -15 -5 4
-15 -3 -22 -15 -10 -20 -9 -21 15 -17 14 3 23 1 20 -3 -6 -10 -38 -12 -47 -3
-11 11 16 55 31 49 9 -3 12 0 9 9 -3 8 -1 17 6 19 21 7 2 17 -21 10 -12 -3
-19 -10 -15 -16 3 -6 1 -7 -6 -3 -14 9 -5 26 15 26 8 0 14 4 14 9 0 11 -25 32
-31 26 -3 -2 -6 6 -6 18 -2 17 0 19 7 7 7 -11 9 -8 8 13 -1 15 -7 27 -12 27
-5 0 -1 7 10 15 17 14 17 16 3 25 -21 13 -19 52 3 56 10 1 17 -1 17 -4 -3 -20
4 -21 37 -7 20 8 40 12 45 9 5 -3 9 2 9 10 0 9 4 16 9 16 5 0 7 -10 3 -22 -4
-18 -2 -20 16 -16 13 4 20 2 19 -5 -1 -6 8 -12 21 -13 17 -1 22 4 22 22 0 13
-10 30 -22 38 -29 19 -128 31 -128 16 0 -6 4 -9 9 -5 15 9 25 -15 12 -28 -9
-9 -10 -7 -5 8 4 11 4 17 -1 13 -4 -4 -15 -2 -23 4 -11 10 -17 8 -29 -7 -7
-11 -16 -18 -19 -15 -3 3 -17 -14 -30 -38 -14 -24 -20 -41 -14 -37 5 3 10 2
10 -3 0 -6 -8 -13 -17 -16 -15 -6 -15 -8 -3 -16 8 -6 10 -10 5 -10 -7 0 -9
-15 -7 -35 3 -26 9 -35 23 -35 10 0 19 -4 19 -10 0 -5 -8 -6 -17 -3 -13 5 -12
0 7 -27 21 -30 22 -34 7 -45 -9 -7 -14 -15 -10 -19 4 -4 1 -4 -8 -1 -18 7 -35
-7 -83 -66 -26 -33 -44 -46 -62 -46 -13 0 -22 2 -19 5 3 3 -9 13 -25 23 -17
11 -30 24 -30 30 0 6 -7 9 -14 6 -10 -4 -13 -1 -10 7 3 7 -5 24 -16 37 -12 13
-18 17 -14 9 7 -13 5 -13 -9 -1 -12 9 -17 10 -17 2 0 -7 -4 -10 -9 -6 -5 3
-12 2 -15 -3 -3 -5 -21 -7 -42 -6 -30 3 -37 0 -42 -18 -5 -21 -6 -21 -13 -2
-7 18 -8 18 -8 -2 -1 -25 24 -51 33 -35 4 6 13 8 21 5 8 -4 28 -1 45 4 25 9
32 8 44 -9 7 -11 20 -19 27 -17 7 2 15 -7 17 -19 2 -12 10 -24 18 -27 10 -4
13 -1 9 7 -4 6 2 1 13 -12 11 -14 30 -24 45 -24 15 0 24 -3 22 -8 -6 -9 71
-21 100 -15 11 3 30 5 43 5 16 1 22 7 22 25 0 19 -4 23 -19 19 -10 -3 -21 -1
-24 4 -3 5 6 8 21 7 19 0 28 -7 32 -24 5 -20 7 -21 20 -9 9 8 22 15 30 17 19
4 90 77 90 92 0 6 -5 8 -12 4 -7 -4 -8 -3 -4 5 4 6 11 9 16 6 11 -7 18 4 24
39 3 16 8 31 11 34 3 4 4 -8 1 -25 -5 -26 -3 -31 12 -28 9 2 23 4 30 4 6 1 12
6 12 12 0 5 -4 8 -8 5 -4 -2 -14 -1 -21 3 -9 6 -4 8 13 8 14 0 26 -3 26 -8 0
-5 6 -6 14 -3 9 3 12 12 8 22 -5 15 -3 15 10 4 14 -11 18 -10 27 5 6 10 11 15
11 10 0 -4 8 1 18 10 11 10 17 21 15 26 -2 4 1 7 6 7 6 0 11 8 12 18 0 11 2
12 6 4 3 -9 13 -2 29 19 13 18 24 28 24 22 0 -7 -7 -19 -16 -27 -8 -9 -12 -16
-7 -16 4 -1 25 -3 46 -6 31 -5 43 -2 59 16 11 12 26 19 34 16 9 -3 14 1 15 12
0 9 3 12 5 5 4 -9 14 -8 40 4 37 18 46 34 14 28 -11 -2 -23 1 -26 7 -4 6 -2 8
4 4 6 -4 12 3 14 16 2 13 9 22 16 21 6 -2 12 6 12 17 0 11 -6 19 -12 17 -8 -1
-13 8 -13 21 0 12 5 22 10 21 6 0 13 10 17 23 7 22 7 22 5 -2 -1 -14 -8 -24
-15 -23 -6 2 -12 -6 -12 -17 0 -11 6 -19 13 -17 7 1 12 -8 12 -23 0 -15 -5
-24 -12 -23 -7 2 -13 -6 -13 -16 0 -15 6 -18 28 -15 15 3 35 5 44 5 20 0 50
37 42 51 -3 4 -2 8 3 8 12 0 33 74 22 78 -5 2 -9 8 -9 13 0 6 5 7 10 4 6 -3
10 3 10 15 0 12 -4 19 -9 16 -5 -4 -11 -1 -13 5 -6 18 -38 -2 -39 -25 -1 -14
-3 -16 -6 -5 -3 13 -9 14 -38 5 -19 -6 -35 -13 -35 -16 0 -6 -88 -3 -107 4 -9
4 -12 1 -7 -7 5 -9 4 -9 -7 0 -16 15 -33 17 -24 3 3 -5 1 -10 -4 -10 -6 0 -11
7 -11 16 0 11 -6 14 -22 8 -13 -3 -20 -3 -16 1 4 5 0 14 -10 22 -9 8 -11 12
-4 8 21 -10 13 9 -9 23 -16 11 -18 16 -9 28 15 17 -1 19 -20 2 -12 -11 -12
-10 0 5 12 16 12 20 -1 28 -8 5 -10 9 -5 9 6 0 -5 16 -24 35 -19 19 -42 35
-53 35 -10 0 -16 4 -13 9 3 5 -8 14 -26 20 -39 14 -41 14 -33 -2 4 -6 0 -4 -8
6 -16 19 -41 23 -32 5 4 -7 1 -6 -7 3 -8 9 -28 15 -51 15 -23 -1 -37 4 -37 12
0 6 -4 12 -10 12 -5 0 -10 9 -10 20 0 11 -9 29 -20 40 -22 22 -26 45 -8 56 8
5 9 2 5 -10 -5 -13 -2 -16 16 -14 12 2 28 7 36 12 10 6 12 5 7 -2 -4 -7 -1
-12 8 -12 9 0 16 6 16 13 0 9 2 9 9 -1 7 -11 9 -11 14 2 4 9 12 16 19 16 10 0
10 -2 -1 -9 -9 -6 -10 -11 -2 -15 6 -4 11 -4 11 -1 0 4 8 -1 17 -11 16 -15 17
-15 24 2 7 17 8 17 8 -3 1 -19 7 -23 34 -25 53 -3 121 2 127 10 7 10 54 9 61
-1 9 -13 112 -13 116 0 3 7 10 10 18 7 20 -8 57 15 51 32 -3 8 -1 14 4 14 6 0
10 -6 10 -12 0 -7 7 -4 16 7 8 11 12 25 10 32 -3 8 1 10 12 6 9 -3 14 -3 10 2
-4 4 -2 15 5 23 10 13 9 15 -3 8 -8 -4 -7 -1 3 7 14 12 15 16 3 26 -16 13 -46
4 -46 -14 0 -7 -7 -18 -15 -25 -17 -14 -21 -35 -5 -25 6 4 7 -1 3 -11 -4 -11
-8 -13 -11 -6 -2 7 -8 12 -14 12 -6 0 -7 -7 -4 -16 4 -11 2 -15 -8 -11 -7 3
-31 0 -52 -8 -31 -11 -46 -11 -82 0 -43 13 -89 11 -105 -4 -9 -9 -81 -4 -120
9 -21 7 -26 6 -22 -3 4 -7 0 -4 -8 6 -8 9 -21 16 -28 14 -8 -2 -11 -2 -6 0 15
9 6 23 -15 24 -13 0 -17 3 -11 6 10 3 9 9 -1 26 -8 12 -12 30 -11 40 2 9 -1
15 -6 11 -5 -3 -9 -1 -9 5 0 5 6 11 13 14 9 3 9 8 -2 21 -8 9 -11 19 -7 23 3
3 6 1 6 -5 0 -7 5 -12 11 -12 5 0 8 4 5 8 -7 12 62 55 94 57 45 3 82 -41 78
-91 -3 -35 -6 -39 -33 -41 -17 -2 -37 -12 -46 -24 -12 -17 -18 -19 -24 -9 -5
8 -4 11 2 7 12 -8 26 20 17 34 -3 5 -13 9 -23 9 -25 0 -21 -45 4 -64 18 -13
21 -12 33 7 l13 22 -6 -22 c-5 -20 6 -24 35 -13 3 1 10 3 15 4 17 2 41 20 47
36 7 19 5 36 -4 33 -4 -2 -4 5 -1 14 5 12 3 14 -7 8 -9 -6 -11 -4 -5 5 6 10
11 9 22 -5 7 -11 13 -17 14 -14 8 36 3 62 -15 74 -14 10 -16 15 -6 15 9 0 1
12 -18 30 -18 16 -35 30 -36 30 -6 0 3 -51 11 -63 4 -7 0 -5 -9 6 -9 10 -14
25 -11 34 4 11 3 14 -5 9 -7 -4 -15 -1 -18 8 -7 18 -78 16 -97 -3 -6 -6 -8
-11 -4 -11 4 0 3 -9 -3 -19 -6 -12 -17 -17 -29 -14 -10 3 -22 -1 -26 -8 -5 -8
-4 -10 3 -5 7 4 12 2 12 -3 0 -6 -7 -11 -15 -11 -16 0 -19 -9 -9 -34 3 -9 11
-13 17 -9 6 3 7 1 3 -6 -6 -9 -11 -9 -21 -1 -10 9 -13 1 -11 -37 1 -36 5 -47
15 -45 12 3 12 1 0 -14 -12 -16 -12 -17 4 -11 10 4 16 3 12 -2 -3 -5 3 -12 12
-14 10 -2 5 -3 -12 -1 -28 3 -29 3 -11 -11 26 -19 13 -19 -24 0 -17 9 -32 16
-34 18 -3 1 -12 -7 -20 -18 -15 -20 -15 -20 -10 2 8 28 -28 40 -64 22 -22 -12
-26 -12 -30 1 -12 35 -64 69 -123 81 -35 7 -59 17 -59 24 0 8 -3 21 -6 30 -5
11 2 8 18 -8 47 -47 153 -46 153 0 0 12 4 25 8 29 4 5 5 1 1 -9 -5 -13 -2 -16
10 -11 9 4 15 9 12 11 -3 3 4 23 15 44 25 50 79 80 146 79 13 0 22 4 20 9 -3
10 48 53 97 80 63 36 162 26 214 -22 12 -11 22 -17 22 -13 0 4 7 1 15 -8 8 -8
15 -19 15 -25 0 -6 5 -11 10 -11 6 0 10 -7 10 -15 0 -14 9 -17 58 -18 12 -1
22 -5 22 -9 0 -4 5 -8 10 -8 7 0 6 8 -1 23 -11 20 -11 21 4 8 10 -7 17 -9 17
-4 0 16 -22 32 -38 26 -10 -4 -13 -2 -8 6 4 6 3 10 -1 9 -12 -4 -83 58 -77 66
2 3 1 4 -2 2 -3 -2 -17 7 -31 20 -31 28 -44 31 -37 7 2 -10 -1 -8 -7 4 -12 24
-42 38 -58 28 -5 -3 -12 -1 -15 4 -7 11 -74 5 -112 -10 -16 -7 -33 -12 -39
-11 -5 1 -30 -16 -55 -38 -38 -33 -43 -41 -31 -52 12 -11 13 -10 8 5 -4 9 -2
17 3 17 11 0 14 -23 4 -33 -4 -3 -17 1 -30 10 -22 14 -24 14 -25 -3 0 -11 -3
-14 -6 -6 -7 17 -23 15 -40 -6 -8 -9 -12 -11 -8 -5 4 9 1 11 -9 7 -9 -3 -16
-10 -16 -16 0 -5 -4 -7 -9 -3 -5 3 -23 -11 -40 -32 -31 -37 -34 -57 -6 -33 9
7 18 10 21 8 3 -3 -9 -12 -25 -19 -17 -8 -31 -20 -31 -27 0 -7 5 -10 12 -6 7
5 8 3 4 -5 -5 -7 -11 -10 -14 -7 -3 3 -13 -1 -23 -10 -12 -11 -27 -14 -48 -9
-17 4 -31 10 -31 13 0 13 -55 33 -58 22 -2 -6 -7 -8 -12 -5 -19 12 -45 -50
-30 -70 10 -12 -2704 -14 -2716 -2 -15 14 -5 250 11 265 14 14 243 21 910 27
1825 17 1807 17 1874 35 44 11 94 58 124 114 22 41 22 43 22 681 0 794 -9
1044 -40 1091 -26 41 -121 97 -186 110 -40 8 -176 13 -407 14 -502 2 -526 5
-538 65 -9 48 -1 212 11 224 19 19 123 25 695 36 389 8 423 13 455 75 26 51
19 80 -36 151 l-29 37 -767 2 c-1507 3 -2093 6 -2097 11 -3 3 -7 376 -9 829
-3 578 -7 833 -15 852 -14 35 -67 68 -109 68 -19 0 -43 -10 -62 -25z m3493
-4354 c4 -5 -3 -7 -14 -4 -23 6 -26 13 -6 13 8 0 17 -4 20 -9z m61 -1 c4 -6
-1 -7 -11 -3 -13 5 -15 3 -9 -7 5 -9 4 -11 -4 -6 -6 4 -9 12 -6 17 8 12 22 12
30 -1z m-100 -21 c-8 -11 -42 -12 -49 0 -3 4 6 6 21 3 19 -4 24 -2 18 8 -5 9
-4 11 4 6 6 -4 9 -12 6 -17z m163 -10 c2 -9 1 -10 -5 -3 -4 6 -18 10 -30 9
-12 -1 -20 2 -17 7 8 12 48 3 52 -13z m-223 -9 c-3 -4 0 -11 5 -13 6 -3 5 -4
-1 -3 -7 1 -13 10 -15 19 -1 9 2 15 7 11 5 -3 7 -9 4 -14z m270 0 c-3 -5 -11
-10 -16 -10 -6 0 -7 5 -4 10 3 6 11 10 16 10 6 0 7 -4 4 -10z m-291 -18 c2 -4
0 -14 -6 -22 -8 -12 -9 -12 -4 2 3 10 -1 18 -12 21 -16 4 -16 5 0 6 9 0 19 -3
22 -7z m310 0 c2 -4 -5 -9 -17 -9 -17 -2 -19 0 -7 7 18 12 18 12 24 2z m31
-22 c3 -5 1 -10 -4 -10 -6 0 -11 5 -11 10 0 6 2 10 4 10 3 0 8 -4 11 -10z m31
-22 c4 -7 3 -8 -4 -4 -7 4 -12 3 -12 -3 0 -5 6 -12 13 -14 9 -4 9 -6 0 -6 -15
-1 -26 16 -18 29 8 13 12 13 21 -2z m-480 -35 c-3 -4 -6 -1 -6 6 0 7 -4 9 -10
6 -6 -4 -7 1 -3 11 6 15 7 15 15 -1 6 -9 7 -19 4 -22z m44 23 c0 -2 -7 -7 -16
-10 -8 -3 -12 -2 -9 4 6 10 25 14 25 6z m-70 -33 c0 -3 -7 -3 -15 1 -8 3 -15
0 -15 -6 0 -6 -3 -9 -6 -5 -11 10 6 26 21 20 8 -3 15 -7 15 -10z m545 -1 c-3
-3 -11 0 -18 7 -9 10 -8 11 6 5 10 -3 15 -9 12 -12z m-599 -29 c-3 -4 -6 -1
-6 6 0 7 -4 9 -10 6 -6 -4 -7 1 -3 11 6 15 7 15 15 -1 6 -9 7 -19 4 -22z m234
-3 c0 -5 -5 -10 -11 -10 -5 0 -7 5 -4 10 3 6 8 10 11 10 2 0 4 -4 4 -10z m53
-5 c4 -8 3 -16 -1 -19 -4 -3 -9 4 -9 15 -2 23 3 25 10 4z m-33 -15 c-8 -5 -19
-10 -25 -10 -5 0 -3 5 5 10 8 5 20 10 25 10 6 0 3 -5 -5 -10z m-49 -33 c-10
-9 -11 -8 -5 6 3 10 9 15 12 12 3 -3 0 -11 -7 -18z m169 17 c0 -8 -19 -13 -24
-6 -3 5 1 9 9 9 8 0 15 -2 15 -3z m-400 -8 c0 -3 -4 -8 -10 -11 -5 -3 -10 -1
-10 4 0 6 5 11 10 11 6 0 10 -2 10 -4z m-185 -16 c3 -5 1 -10 -4 -10 -6 0 -11
5 -11 10 0 6 2 10 4 10 3 0 8 -4 11 -10z m-35 -20 c0 -5 -2 -10 -4 -10 -3 0
-8 5 -11 10 -3 6 -1 10 4 10 6 0 11 -4 11 -10z m54 -5 c-5 -11 -1 -14 12 -9
16 5 16 4 4 -5 -17 -12 -36 1 -26 18 10 16 16 13 10 -4z m103 -17 c-3 -8 -6
-5 -6 6 -1 11 2 17 5 13 3 -3 4 -12 1 -19z m-154 -11 c4 3 7 4 7 0 0 -18 -21
-14 -30 5 -10 21 -10 21 3 6 8 -10 17 -15 20 -11z m92 -7 c3 -6 -1 -7 -9 -4
-18 7 -21 14 -7 14 6 0 13 -4 16 -10z m52 -6 c-3 -3 -12 -4 -19 -1 -8 3 -5 6
6 6 11 1 17 -2 13 -5z m248 -34 c3 -6 -1 -7 -9 -4 -18 7 -21 14 -7 14 6 0 13
-4 16 -10z m-10 -20 c3 -5 1 -10 -4 -10 -6 0 -11 5 -11 10 0 6 2 10 4 10 3 0
8 -4 11 -10z m190 0 c-3 -5 -12 -10 -18 -10 -7 0 -6 4 3 10 19 12 23 12 15 0z
m390 0 c-3 -5 -12 -10 -18 -10 -7 0 -6 4 3 10 19 12 23 12 15 0z m-345 -4 c0
-2 -6 -9 -14 -15 -11 -9 -16 -9 -22 0 -4 8 -3 9 4 5 7 -4 12 -2 12 3 0 6 5 11
10 11 6 0 10 -2 10 -4z m-205 -16 c3 -5 1 -10 -4 -10 -6 0 -11 5 -11 10 0 6 2
10 4 10 3 0 8 -4 11 -10z m525 -10 c0 -5 -5 -10 -11 -10 -5 0 -7 5 -4 10 3 6
8 10 11 10 2 0 4 -4 4 -10z m-665 -50 c0 -16 -7 -24 -22 -26 -27 -4 -35 7 -21
26 8 12 9 12 5 -2 -4 -12 0 -16 14 -15 11 1 19 9 19 20 0 10 -4 16 -9 12 -5
-3 -12 -1 -15 4 -4 5 2 8 11 7 11 -2 18 -12 18 -26z m203 -35 c-3 -3 -9 2 -12
12 -6 14 -5 15 5 6 7 -7 10 -15 7 -18z m382 15 c0 -5 -5 -10 -11 -10 -5 0 -7
5 -4 10 3 6 8 10 11 10 2 0 4 -4 4 -10z m-165 -29 c-6 -5 -25 10 -25 20 0 5 6
4 14 -3 8 -7 12 -15 11 -17z m-455 4 c0 -2 -9 -3 -19 -2 -11 0 -18 5 -15 9 4
6 34 0 34 -7z m40 -5 c-6 -11 -13 -20 -16 -20 -2 0 0 9 6 20 6 11 13 20 16 20
2 0 0 -9 -6 -20z m275 11 c3 -5 0 -13 -6 -17 -8 -4 -9 -3 -5 4 4 7 2 12 -3 12
-6 0 -11 -5 -11 -12 0 -6 -3 -9 -6 -5 -7 7 4 27 16 27 5 0 11 -4 15 -9z m105
5 c0 -3 -4 -8 -10 -11 -5 -3 -10 -1 -10 4 0 6 5 11 10 11 6 0 10 -2 10 -4z
m114 -11 c11 -8 16 -15 10 -15 -5 0 -18 7 -28 15 -11 8 -16 15 -10 15 5 0 18
-7 28 -15z m56 7 c0 -5 -7 -9 -15 -9 -8 0 -15 4 -15 9 0 4 7 8 15 8 8 0 15 -4
15 -8z m70 4 c0 -2 -7 -6 -15 -10 -8 -3 -15 -1 -15 4 0 6 7 10 15 10 8 0 15
-2 15 -4z m-270 -22 c0 -2 -7 -4 -15 -4 -8 0 -15 4 -15 10 0 5 7 7 15 4 8 -4
15 -8 15 -10z m-422 -28 c-10 -7 -14 -17 -10 -21 4 -5 2 -5 -5 -1 -7 4 -10 13
-7 21 4 8 10 12 15 9 5 -3 9 0 9 7 0 7 3 9 7 5 5 -4 0 -13 -9 -20z m57 -17 c6
1 10 -8 10 -19 0 -11 -4 -20 -10 -19 -5 0 -13 -10 -17 -23 -7 -22 -7 -22 -5 2
1 14 8 24 15 23 6 -2 12 6 12 16 0 14 -6 19 -20 16 -11 -2 -23 1 -26 7 -4 7
-2 8 4 4 8 -5 12 1 13 16 l1 23 6 -23 c4 -13 12 -23 17 -23z m322 35 c-3 -3
-12 -4 -19 -1 -8 3 -5 6 6 6 11 1 17 -2 13 -5z m-281 -22 c1 -7 0 -8 -3 -2 -2
5 -9 8 -14 4 -5 -3 -9 0 -9 6 0 15 23 7 26 -8z m-126 -37 c0 -8 -2 -15 -4 -15
-2 0 -6 7 -10 15 -3 8 -1 15 4 15 6 0 10 -7 10 -15z m60 -2 c0 -3 -7 -2 -16 1
-12 5 -15 2 -10 -11 6 -14 4 -15 -5 -6 -14 14 -3 34 16 26 8 -3 15 -7 15 -10z
m80 -8 c4 3 15 -6 24 -20 16 -25 11 -35 -16 -32 -18 3 -54 37 -38 37 6 0 13
-6 16 -13 2 -7 13 -13 24 -14 16 -1 18 1 8 17 -7 10 -16 18 -22 17 -5 -1 -11
5 -11 13 -1 8 0 9 2 2 3 -7 8 -10 13 -7z m-180 6 c0 -14 -29 -21 -36 -9 -4 6
-3 8 4 4 6 -3 13 -2 17 4 8 12 15 13 15 1z m-304 -37 c-5 -12 -2 -15 11 -10
14 6 15 4 6 -5 -14 -14 -34 -3 -26 16 3 8 7 15 10 15 3 0 2 -7 -1 -16z m49 6
c-7 -11 8 -14 19 -3 10 10 46 11 40 1 -6 -10 10 -11 20 -1 10 10 46 11 40 1
-3 -5 -13 -7 -22 -6 -14 2 -17 -5 -17 -40 0 -23 -3 -42 -6 -42 -4 0 -9 -11
-11 -25 -3 -16 -1 -22 6 -19 6 3 3 -1 -6 -9 -10 -8 -15 -17 -11 -20 3 -4 1 -7
-6 -7 -8 0 -10 -8 -7 -22 3 -13 3 -18 0 -12 -3 7 -14 10 -25 7 -10 -3 -25 0
-33 6 -8 7 -19 10 -26 9 -7 -2 -14 3 -15 10 -2 7 -1 8 2 2 10 -21 22 1 13 25
-5 14 -6 25 -3 25 4 0 2 5 -5 12 -7 7 -12 19 -12 27 0 14 1 14 10 1 8 -12 10
-11 10 6 0 11 9 29 20 39 10 9 19 20 18 24 -1 12 2 21 8 21 3 0 2 -4 -1 -10z
m152 -13 c-1 -5 -11 -11 -20 -13 -9 -1 -15 2 -11 7 3 5 10 6 16 3 8 -5 9 -1 5
10 -4 11 -3 15 4 11 5 -4 8 -12 6 -18z m59 -2 c-3 -9 -10 -14 -15 -10 -5 3
-11 -3 -14 -12 -3 -14 -4 -13 -3 2 1 11 7 19 14 18 6 -2 12 5 12 14 0 9 3 14
6 10 4 -3 4 -13 0 -22z m44 10 c-7 -9 -15 -13 -19 -10 -3 3 1 10 9 15 21 14
24 12 10 -5z m37 -4 c-15 -10 -24 -20 -21 -24 12 -12 -25 -19 -43 -8 -15 9
-13 10 11 5 21 -5 27 -4 22 5 -4 6 0 14 8 17 9 3 14 9 12 13 -3 4 5 8 17 8 19
2 18 0 -6 -16z m117 -17 c3 -8 2 -12 -4 -9 -6 3 -10 10 -10 16 0 14 7 11 14
-7z m138 -3 c-2 -10 5 -12 25 -7 23 5 25 4 10 -5 -20 -12 -52 -5 -43 10 4 5
-2 12 -11 15 -14 4 -13 4 2 2 11 -1 19 -8 17 -15z m-616 -10 c-4 -5 -1 -11 6
-13 8 -3 6 -6 -4 -10 -11 -5 -15 -2 -13 10 5 23 4 22 11 22 3 0 3 -4 0 -9z
m384 -1 c0 -5 -2 -10 -4 -10 -3 0 -8 5 -11 10 -3 6 -1 10 4 10 6 0 11 -4 11
-10z m165 0 c-3 -5 -12 -10 -18 -10 -7 0 -6 4 3 10 19 12 23 12 15 0z m33 -6
c-2 -8 -7 -14 -12 -14 -5 1 -13 -4 -18 -12 -8 -10 -9 -10 -5 2 2 8 10 14 17
12 8 -2 10 3 7 13 -4 8 -2 15 4 15 6 0 9 -7 7 -16z m119 -8 c-3 -8 -14 -12
-24 -10 -13 4 -19 -1 -20 -16 -1 -11 2 -18 6 -16 4 3 13 0 21 -5 11 -7 8 -8
-10 -6 -34 5 -36 52 -2 51 13 0 22 5 22 14 0 9 3 13 6 9 4 -3 4 -13 1 -21z
m-490 8 c-3 -3 -12 -4 -19 -1 -8 3 -5 6 6 6 11 1 17 -2 13 -5z m-32 -13 c3 -5
0 -13 -6 -17 -7 -4 -9 -3 -5 4 3 5 0 13 -6 15 -9 4 -10 6 -1 6 6 1 14 -3 18
-8z m58 -23 c-2 -5 -14 -6 -25 -2 -15 4 -18 3 -13 -6 5 -9 4 -11 -4 -6 -17 11
-2 28 20 21 15 -5 18 -3 13 12 -5 14 -4 15 4 3 6 -8 8 -18 5 -22z m62 3 c0
-17 -6 -25 -22 -27 -25 -4 -39 11 -22 22 7 4 9 3 5 -4 -4 -6 1 -10 13 -9 12 1
19 8 18 19 -1 11 -7 16 -14 14 -7 -3 -13 -1 -13 5 0 6 8 9 17 7 11 -2 18 -12
18 -27z m65 19 c0 -5 -4 -10 -10 -10 -5 0 -10 5 -10 10 0 6 5 10 10 10 6 0 10
-4 10 -10z m234 -15 c-5 -18 -3 -25 7 -23 16 4 25 -30 11 -44 -6 -6 -8 0 -4
18 3 18 1 25 -6 20 -15 -9 -25 10 -17 34 9 29 17 25 9 -5z m116 0 c-7 -8 -16
-15 -21 -15 -5 0 -1 8 9 18 20 22 31 19 12 -3z m-1134 -3 c-4 -13 0 -18 14
-19 13 -1 18 2 14 9 -4 7 -2 8 5 4 6 -4 9 -12 6 -17 -8 -12 -50 -5 -49 9 2 25
4 32 10 32 3 0 3 -8 0 -18z m1197 -7 c-4 -11 0 -14 13 -9 15 5 16 4 4 -4 -18
-14 -29 -7 -27 18 1 10 5 17 9 14 4 -3 5 -11 1 -19z m-443 11 c0 -3 -4 -8 -10
-11 -5 -3 -10 -1 -10 4 0 6 5 11 10 11 6 0 10 -2 10 -4z m300 -6 c0 -5 -2 -10
-4 -10 -3 0 -8 5 -11 10 -3 6 -1 10 4 10 6 0 11 -4 11 -10z m112 -7 c-6 -9
-17 -18 -26 -19 -9 -1 -14 2 -10 7 3 5 10 7 15 4 5 -4 9 1 9 9 0 9 5 16 10 16
7 0 8 -6 2 -17z m-387 -12 c-3 -6 -11 -9 -16 -6 -5 4 -9 -3 -9 -15 0 -12 4
-19 9 -15 5 3 12 1 15 -4 4 -5 -2 -8 -11 -7 -12 2 -18 12 -18 27 0 14 5 23 13
22 6 -2 12 2 12 9 0 6 3 9 6 5 3 -3 3 -11 -1 -16z m-361 -7 c3 -8 2 -12 -4 -9
-6 3 -10 10 -10 16 0 14 7 11 14 -7z m183 -15 c-2 -12 -10 -25 -18 -30 -8 -5
-9 -9 -4 -9 6 0 3 -6 -5 -13 -8 -7 -16 -20 -18 -30 -3 -15 0 -16 17 -5 11 6
17 16 15 20 -3 5 2 11 10 14 9 3 14 9 12 13 -3 4 5 8 17 8 19 2 18 0 -6 -16
-15 -10 -25 -20 -22 -23 3 -3 -6 -13 -19 -22 -14 -8 -27 -12 -30 -8 -8 14 0
43 15 53 8 5 10 9 4 9 -5 0 -3 6 5 13 23 18 25 48 3 41 -15 -5 -15 -4 -3 4 19
14 30 6 27 -19z m-623 -4 c-4 -8 -8 -15 -10 -15 -2 0 -4 7 -4 15 0 8 4 15 10
15 5 0 7 -7 4 -15z m96 8 c0 -5 -12 -9 -27 -10 -19 -1 -22 1 -12 8 17 11 39
12 39 2z m547 -15 c-3 -8 -6 -5 -6 6 -1 11 2 17 5 13 3 -3 4 -12 1 -19z m63 5
c0 -3 -7 -2 -16 1 -12 5 -14 1 -9 -17 5 -19 4 -20 -5 -4 -13 21 -5 38 15 30 8
-3 15 -7 15 -10z m494 2 c-4 -8 -8 -15 -10 -15 -2 0 -4 7 -4 15 0 8 4 15 10
15 5 0 7 -7 4 -15z m-77 -1 c-3 -3 -12 -4 -19 -1 -8 3 -5 6 6 6 11 1 17 -2 13
-5z m43 -3 c0 -5 -10 -11 -22 -14 -22 -6 -22 -6 -4 8 23 17 26 18 26 6z
m-1030 -45 c0 -6 -7 -1 -15 10 -8 10 -15 23 -15 28 0 6 7 1 15 -10 8 -10 15
-23 15 -28z m301 21 c-10 -9 -11 -8 -5 6 3 10 9 15 12 12 3 -3 0 -11 -7 -18z
m329 -12 c0 -5 -5 -3 -10 5 -5 8 -10 20 -10 25 0 6 5 3 10 -5 5 -8 10 -19 10
-25z m311 12 c-10 -9 -11 -8 -5 6 3 10 9 15 12 12 3 -3 0 -11 -7 -18z m186 8
c5 -4 3 -5 -4 -2 -6 4 -13 2 -15 -3 -2 -7 -10 -6 -21 3 -17 12 -16 13 7 12 14
-1 29 -5 33 -10z m-558 -21 c-11 -14 -10 -15 7 -12 10 1 23 8 27 13 5 6 7 4 5
-4 -4 -14 -35 -24 -50 -15 -4 3 -2 14 4 24 7 11 14 17 17 15 2 -3 -2 -12 -10
-21z m404 9 c-20 -7 -15 -19 7 -20 13 -1 18 2 14 9 -4 7 -2 8 5 4 6 -4 9 -12
6 -17 -6 -9 -40 -7 -51 3 -9 9 5 28 19 27 9 0 9 -2 0 -6z m77 -3 c0 -5 -4 -10
-10 -10 -5 0 -10 5 -10 10 0 6 5 10 10 10 6 0 10 -4 10 -10z m-1026 -26 c3 -8
2 -12 -4 -9 -6 3 -10 10 -10 16 0 14 7 11 14 -7z m619 1 c-3 -9 -8 -14 -10
-11 -3 3 -2 9 2 15 9 16 15 13 8 -4z m483 -18 c-2 -15 -10 -22 -25 -21 -22 1
-26 -23 -6 -39 6 -5 4 -7 -5 -4 -8 2 -15 14 -15 28 0 18 5 23 20 21 15 -2 21
3 22 18 2 18 -1 19 -13 10 -9 -8 -14 -9 -14 -2 0 12 21 22 32 15 4 -2 6 -14 4
-26z m-96 13 c0 -5 -5 -10 -11 -10 -5 0 -7 5 -4 10 3 6 8 10 11 10 2 0 4 -4 4
-10z m34 -5 c3 -8 1 -15 -4 -15 -6 0 -10 7 -10 15 0 8 2 15 4 15 2 0 6 -7 10
-15z m-1357 -1 c-3 -3 -12 -4 -19 -1 -8 3 -5 6 6 6 11 1 17 -2 13 -5z m816 -9
c-3 -10 -1 -15 8 -13 8 2 14 -8 15 -27 2 -20 0 -25 -5 -16 -5 8 -7 20 -4 28 3
8 0 13 -8 11 -7 -2 -15 5 -17 15 -2 9 1 17 7 17 6 0 8 -7 4 -15z m42 -3 c-3
-3 -11 0 -18 7 -9 10 -8 11 6 5 10 -3 15 -9 12 -12z m45 -2 c-6 -11 -13 -20
-16 -20 -2 0 0 9 6 20 6 11 13 20 16 20 2 0 0 -9 -6 -20z m537 -2 c-3 -8 -6
-5 -6 6 -1 11 2 17 5 13 3 -3 4 -12 1 -19z m-800 6 c-3 -3 -12 -4 -19 -1 -8 3
-5 6 6 6 11 1 17 -2 13 -5z m640 0 c-3 -3 -12 -4 -19 -1 -8 3 -5 6 6 6 11 1
17 -2 13 -5z m-1339 -35 c-3 -8 -7 -3 -11 10 -4 17 -3 21 5 13 5 -5 8 -16 6
-23z m759 5 c2 -14 1 -15 -5 -4 -4 8 -15 16 -26 18 -10 2 -15 -1 -12 -7 10
-15 -12 -23 -31 -11 -16 9 -15 10 5 5 12 -4 22 -3 21 2 -3 18 2 23 24 19 13
-2 23 -11 24 -22z m97 10 c3 -8 2 -12 -4 -9 -6 3 -10 10 -10 16 0 14 7 11 14
-7z m547 -6 c6 -12 6 -18 -1 -18 -5 0 -10 7 -10 16 0 8 -4 13 -8 10 -4 -2 -14
-1 -22 4 -11 7 -9 9 8 7 13 -1 28 -9 33 -19z m-471 -3 c0 -8 -4 -15 -10 -15
-5 0 -7 7 -4 15 4 8 8 15 10 15 2 0 4 -7 4 -15z m917 -17 c-3 -7 -5 -2 -5 12
0 14 2 19 5 13 2 -7 2 -19 0 -25z m-1070 0 c-3 -8 -6 -5 -6 6 -1 11 2 17 5 13
3 -3 4 -12 1 -19z m55 2 c-2 -8 3 -10 13 -7 8 4 15 2 15 -4 0 -6 -8 -9 -17 -7
-10 2 -17 10 -15 16 1 7 -2 12 -8 12 -5 0 -10 -5 -10 -12 0 -6 -3 -9 -6 -5 -9
9 6 29 19 24 7 -3 11 -10 9 -17z m528 5 c0 -8 -2 -15 -4 -15 -2 0 -6 7 -10 15
-3 8 -1 15 4 15 6 0 10 -7 10 -15z m165 5 c3 -6 -1 -7 -9 -4 -18 7 -21 14 -7
14 6 0 13 -4 16 -10z m-785 -20 c0 -5 -4 -10 -10 -10 -5 0 -10 5 -10 10 0 6 5
10 10 10 6 0 10 -4 10 -10z m1060 0 c0 -5 -2 -10 -4 -10 -3 0 -8 5 -11 10 -3
6 -1 10 4 10 6 0 11 -4 11 -10z m-986 -22 c-3 -4 -11 -5 -19 -1 -21 7 -19 12
4 10 11 0 18 -5 15 -9z m840 -3 c-4 -8 -8 -15 -10 -15 -2 0 -4 7 -4 15 0 8 4
15 10 15 5 0 7 -7 4 -15z m66 5 c0 -5 -4 -10 -10 -10 -5 0 -10 5 -10 10 0 6 5
10 10 10 6 0 10 -4 10 -10z m120 0 c0 -5 -4 -10 -10 -10 -5 0 -10 5 -10 10 0
6 5 10 10 10 6 0 10 -4 10 -10z m-220 -10 c0 -5 -7 -7 -15 -4 -8 4 -15 8 -15
10 0 2 7 4 15 4 8 0 15 -4 15 -10z m72 -32 c-6 -6 -12 -6 -17 3 -6 8 -4 10 5
4 9 -5 10 -1 6 16 -6 21 -6 22 5 6 7 -13 8 -22 1 -29z m159 15 c-12 -20 -14
-14 -5 12 4 9 9 14 11 11 3 -2 0 -13 -6 -23z m-1437 1 c3 -8 2 -12 -4 -9 -6 3
-10 10 -10 16 0 14 7 11 14 -7z m1357 -11 c-12 -20 -14 -14 -5 12 4 9 9 14 11
11 3 -2 0 -13 -6 -23z m-613 -14 c-3 -8 -7 -3 -11 10 -4 17 -3 21 5 13 5 -5 8
-16 6 -23z m650 17 c-23 -17 -23 -21 2 -23 13 -1 18 2 14 9 -4 7 -2 8 5 4 16
-11 3 -26 -19 -23 -31 5 -37 17 -16 33 25 18 37 18 14 0z m-505 -13 c-7 -2
-19 -2 -25 0 -7 3 -2 5 12 5 14 0 19 -2 13 -5z m-934 -45 c-11 -21 -15 -22
-25 -6 -4 7 -3 8 4 4 12 -7 16 4 13 34 -2 13 0 13 8 1 6 -10 6 -21 0 -33z
m1303 24 c-1 -8 6 -11 23 -8 14 3 25 1 25 -4 0 -5 -11 -8 -25 -7 -13 1 -24 7
-24 12 0 6 -10 13 -23 17 -22 7 -22 7 2 5 14 -1 24 -8 22 -15z m-13 -36 c-3
-3 -11 5 -18 17 -13 21 -12 21 5 5 10 -10 16 -20 13 -22z m1 -41 c0 -5 -8 2
-18 18 -10 15 -22 24 -27 20 -4 -5 -5 -2 0 6 6 11 12 9 26 -10 10 -13 19 -28
19 -34z m-1403 28 c-4 -3 1 -12 11 -20 15 -13 15 -13 -5 -3 -24 11 -31 30 -11
30 6 0 8 -3 5 -7z m63 -3 c0 -5 -4 -10 -10 -10 -5 0 -10 5 -10 10 0 6 5 10 10
10 6 0 10 -4 10 -10z m1308 -25 c4 0 7 -9 7 -20 -1 -15 -7 -19 -23 -18 -13 2
-21 -1 -18 -5 2 -4 0 -14 -5 -22 -7 -11 -8 -8 -5 10 2 18 9 24 23 23 12 -1 19
5 20 18 1 11 -2 17 -7 14 -5 -3 -14 5 -20 17 -11 22 -11 22 5 3 9 -11 19 -20
23 -20z m62 25 c0 -5 -4 -10 -10 -10 -5 0 -10 5 -10 10 0 6 5 10 10 10 6 0 10
-4 10 -10z m90 6 c0 -3 -4 -8 -10 -11 -5 -3 -10 -1 -10 4 0 6 5 11 10 11 6 0
10 -2 10 -4z m-686 -41 c3 -8 1 -15 -4 -15 -6 0 -10 7 -10 15 0 8 2 15 4 15 2
0 6 -7 10 -15z m495 -5 c-6 -5 -18 -6 -26 -3 -19 8 -16 11 13 11 17 0 22 -3
13 -8z m115 1 c4 -5 -3 -7 -14 -4 -23 6 -26 13 -6 13 8 0 17 -4 20 -9z m-620
-36 c3 -8 1 -15 -4 -15 -6 0 -10 7 -10 15 0 8 2 15 4 15 2 0 6 -7 10 -15z
m486 -5 c0 -5 -2 -10 -4 -10 -3 0 -8 5 -11 10 -3 6 -1 10 4 10 6 0 11 -4 11
-10z m-108 -7 c-6 -2 -9 -10 -6 -15 4 -7 2 -8 -4 -4 -18 11 -14 26 6 25 10 0
12 -3 4 -6z m-127 -23 c3 -6 -1 -7 -9 -4 -18 7 -21 14 -7 14 6 0 13 -4 16 -10z
m34 -6 c4 3 8 -5 8 -16 2 -20 1 -20 -12 -2 -8 11 -14 24 -14 29 0 6 3 4 6 -3
2 -6 8 -10 12 -8z m-89 -4 c0 -5 -5 -10 -11 -10 -5 0 -7 5 -4 10 3 6 8 10 11
10 2 0 4 -4 4 -10z m150 0 c-8 -5 -22 -9 -30 -9 -10 0 -8 3 5 9 27 12 43 12
25 0z m-69 -31 c5 -8 9 -18 8 -24 0 -5 -5 -1 -12 10 -7 11 -21 22 -31 23 -17
3 -18 2 -7 -12 8 -9 9 -16 3 -16 -12 0 -23 25 -15 34 10 10 44 0 54 -15z m89
17 c0 -2 -7 -7 -16 -10 -8 -3 -12 -2 -9 4 6 10 25 14 25 6z m-168 -33 c-6 -10
-21 -19 -34 -20 -17 -2 -19 0 -8 7 8 5 17 7 21 4 4 -2 11 5 14 17 4 11 9 18
12 16 2 -3 0 -14 -5 -24z m128 7 c0 -5 -2 -10 -4 -10 -3 0 -8 5 -11 10 -3 6
-1 10 4 10 6 0 11 -4 11 -10z m-230 -45 c0 -8 -2 -15 -4 -15 -2 0 -6 7 -10 15
-3 8 -1 15 4 15 6 0 10 -7 10 -15z m40 1 c0 -3 -4 -8 -10 -11 -5 -3 -10 -1
-10 4 0 6 5 11 10 11 6 0 10 -2 10 -4z m42 -3 c-6 -2 -10 -9 -7 -14 4 -5 -2
-6 -11 -2 -13 5 -15 3 -9 -7 6 -9 4 -11 -5 -5 -10 6 -9 11 5 22 11 7 24 13 29
12 6 0 5 -3 -2 -6z m-542 -33 c0 -5 -5 -10 -11 -10 -5 0 -7 5 -4 10 3 6 8 10
11 10 2 0 4 -4 4 -10z m80 0 c0 -5 -4 -10 -10 -10 -5 0 -10 5 -10 10 0 6 5 10
10 10 6 0 10 -4 10 -10z m317 -3 c2 -3 -10 -4 -26 -3 -17 0 -31 4 -31 9 0 7
48 2 57 -6z m83 3 c0 -5 -4 -10 -10 -10 -5 0 -10 5 -10 10 0 6 5 10 10 10 6 0
10 -4 10 -10z m11 -27 c-12 -20 -14 -14 -5 12 4 9 9 14 11 11 3 -2 0 -13 -6
-23z m-466 7 c-3 -5 -14 -10 -23 -9 -14 0 -13 2 3 9 27 11 27 11 20 0z m410 1
c3 -5 0 -13 -6 -17 -8 -4 -9 -3 -5 4 4 7 2 12 -3 12 -6 0 -11 -5 -11 -12 0 -6
-3 -9 -6 -5 -7 7 4 27 16 27 5 0 11 -4 15 -9z m-335 -11 c0 -5 -4 -10 -10 -10
-5 0 -10 5 -10 10 0 6 5 10 10 10 6 0 10 -4 10 -10z m240 0 c0 -5 -5 -10 -11
-10 -5 0 -7 5 -4 10 3 6 8 10 11 10 2 0 4 -4 4 -10z m40 -5 c0 -8 -4 -15 -10
-15 -5 0 -7 7 -4 15 4 8 8 15 10 15 2 0 4 -7 4 -15z m80 0 c0 -8 -4 -15 -10
-15 -5 0 -7 7 -4 15 4 8 8 15 10 15 2 0 4 -7 4 -15z m60 1 c0 -3 -4 -8 -10
-11 -5 -3 -10 -1 -10 4 0 6 5 11 10 11 6 0 10 -2 10 -4z m-382 -31 c-3 -3 -9
2 -12 12 -6 14 -5 15 5 6 7 -7 10 -15 7 -18z m223 -10 c9 -17 8 -18 -3 -5 -7
8 -22 17 -32 18 -17 3 -18 2 -7 -12 8 -9 9 -16 3 -16 -11 0 -23 25 -15 33 12
12 45 1 54 -18z m59 12 c0 -5 -7 -7 -15 -3 -8 3 -15 0 -15 -6 0 -6 -3 -9 -6
-5 -3 3 -4 10 0 15 7 12 36 11 36 -1z m80 -4 c0 -3 -7 -3 -15 1 -8 3 -15 0
-15 -6 0 -6 -3 -9 -6 -5 -11 10 6 26 21 20 8 -3 15 -7 15 -10z m-56 -8 c3 -8
1 -15 -4 -15 -6 0 -10 7 -10 15 0 8 2 15 4 15 2 0 6 -7 10 -15z m-270 -11 c9
-24 2 -26 -12 -4 -7 11 -8 20 -3 20 5 0 12 -7 15 -16z m107 -2 c-5 -10 -20
-18 -33 -19 -17 -2 -19 0 -8 7 8 5 18 6 22 4 4 -3 8 2 8 10 0 9 5 16 10 16 7
0 7 -6 1 -18z m137 -17 c-3 -3 -9 2 -12 12 -6 14 -5 15 5 6 7 -7 10 -15 7 -18z
m-132 -13 c-17 -16 -18 -16 -5 5 7 12 15 20 18 17 3 -2 -3 -12 -13 -22z m-69
2 c-3 -3 -12 -4 -19 -1 -8 3 -5 6 6 6 11 1 17 -2 13 -5z m110 -3 c-10 -4 -17
-11 -15 -16 2 -6 -8 -11 -22 -12 l-25 -2 25 8 c14 5 21 9 17 10 -16 2 4 21 21
20 15 0 15 -1 -1 -8z m-67 -11 c0 -5 -2 -10 -4 -10 -3 0 -8 5 -11 10 -3 6 -1
10 4 10 6 0 11 -4 11 -10z"/>
<path d="M6202 1401 c-11 -7 -11 -9 1 -14 9 -3 18 1 21 9 6 16 -2 18 -22 5z"/>
<path d="M6063 641 c1 -12 7 -21 14 -21 17 0 16 15 -1 30 -12 9 -15 8 -13 -9z"/>
<path d="M5143 635 c0 -8 9 -15 20 -15 16 0 17 3 7 15 -7 8 -16 15 -20 15 -3
0 -7 -7 -7 -15z"/>
<path d="M6420 561 c0 -5 9 -11 20 -14 13 -3 20 0 20 9 0 8 -9 14 -20 14 -11
0 -20 -4 -20 -9z"/>
<path d="M4886 494 c-8 -22 -8 -24 8 -24 8 0 18 -4 21 -10 3 -6 -1 -7 -10 -4
-11 4 -14 2 -9 -9 3 -8 14 -17 25 -20 16 -4 19 -2 14 11 -5 13 -3 14 6 5 15
-15 3 -34 -19 -26 -15 6 -15 4 2 -15 18 -21 43 -21 30 0 -5 7 -2 8 6 3 10 -6
12 -4 6 11 -6 15 -5 16 5 7 10 -10 9 -17 -5 -32 -19 -21 -14 -41 10 -41 8 0
12 -4 9 -10 -3 -5 -3 -10 2 -11 37 -3 66 -9 72 -15 3 -4 -5 -4 -19 -1 -24 6
-24 5 -6 -8 24 -18 36 -19 36 -2 0 8 3 8 9 -2 10 -15 20 -18 79 -27 22 -3 31
-1 27 6 -3 5 -1 10 4 10 6 0 11 -4 11 -10 0 -5 5 -10 10 -10 6 0 10 8 8 17 -2
12 4 18 20 19 12 1 25 -2 27 -7 3 -4 -7 -6 -21 -3 -23 4 -25 3 -15 -10 9 -11
19 -12 34 -6 12 4 31 11 42 15 16 5 17 8 5 16 -11 7 -7 8 13 3 17 -4 27 -2 27
5 0 6 6 11 13 11 18 0 57 42 57 62 0 15 -40 34 -40 20 0 -4 -18 -18 -40 -32
-45 -27 -49 -35 -21 -37 14 -1 18 3 14 15 -4 14 -3 14 5 2 20 -27 -11 -38 -46
-16 -7 4 -19 2 -28 -5 -9 -7 -35 -12 -61 -10 -42 2 -44 1 -38 -21 4 -18 2 -17
-11 6 -12 22 -18 26 -25 15 -6 -10 -9 -10 -9 -1 0 6 -5 12 -11 12 -5 0 -8 -4
-5 -8 2 -4 0 -14 -5 -22 -9 -13 -10 -13 -8 0 3 31 -2 38 -33 51 -29 12 -112
90 -114 108 -5 38 -46 56 -58 25z m44 -14 c0 -5 -7 -7 -15 -4 -8 4 -15 8 -15
10 0 2 7 4 15 4 8 0 15 -4 15 -10z m74 -102 c-3 -5 -10 -6 -15 -3 -5 4 -9 1
-9 -6 0 -7 -3 -10 -6 -6 -9 9 3 24 20 24 8 0 13 -4 10 -9z m359 -3 c-3 -9 -8
-14 -10 -11 -3 3 -2 9 2 15 9 16 15 13 8 -4z m-350 -20 c-3 -9 -8 -14 -10 -11
-3 3 -2 9 2 15 9 16 15 13 8 -4z m37 1 c0 -3 -4 -8 -10 -11 -5 -3 -10 -1 -10
4 0 6 5 11 10 11 6 0 10 -2 10 -4z m29 -29 c0 -9 -2 -8 -6 1 -2 6 -10 9 -15 6
-7 -4 -8 -2 -4 5 9 13 26 5 25 -12z m207 -13 c1 -9 0 -13 -4 -10 -3 4 -7 14
-8 22 -1 9 0 13 4 10 3 -4 7 -14 8 -22z m-79 0 c-3 -3 -12 -4 -19 -1 -8 3 -5
6 6 6 11 1 17 -2 13 -5z m-61 -23 c1 -6 0 -7 -3 -1 -2 5 -9 8 -13 5 -5 -3 -11
-1 -14 4 -4 5 2 8 11 7 9 -2 18 -8 19 -15z"/>
</g>
</svg>
